# xmcd
#
# Track frame offsets: 
#        150
#        13929
#        27694
#        41190
#        57207
#        72418
#        85514
#        99052
#        111983
#        127142
#        137757
#        154703
#        169179
#        181354
#        195566
#        210437
#        225816
#        242418
#        257502
#
# Disc length: 3622 seconds
#
# Revision: 0
# Processed by: cddbd v1.5.2PL0 Copyright (c) Steve Scherf et al.
# Submitted via: ExactAudioCopy v1.1
#
DISCID=fb0e2413
DTITLE=Various Artist - MNM Big Hits 2018 Vol. 2 - CD2
DYEAR=2018
DGENRE=Top 40
TTITLE0=Tom Walker - Leave A Light On
TTITLE1=Sofi Tukker Feat. Nervo, The Knocks and Aliso Ueno - Best Friend
TTITLE2=Sennek - A Matter Of Time
TTITLE3=Nathaniel Rateliff and The Night Sweats - You Worry Me
TTITLE4=David Guetta, Martin Garrix, Brooks - Like I Do
TTITLE5=Todiefor Feat. Caballero and JeanJass, Alex Lucas and Anser - Cool
TTITLE5=Kids
TTITLE6=SLM - Kifesh
TTITLE7=5 Seconds Of Summer - Want You Back
TTITLE8=Dimitri Vegas and Like Mike X Quintino Feat. Boef, Ronnie Flex, 
TTITLE8=Ali B and I Am Aisha - Slow Down
TTITLE9=Lennert Wolfs and Oualid - Mi Amor
TTITLE10=Camila Cabello - Never Be The Same
TTITLE11=Milo Meskens - Stone Cold Liar
TTITLE12=Kenn Colt X Nari and Milani - Come Back To Me
TTITLE13=Sevn Alias Feat. Lil Kleine and Boef - Patsergedrag
TTITLE14=Maître Gims Avec Vianney - La Même
TTITLE15=Clean Bandit Feat. Julia Michaels - I Miss You
TTITLE16=George Ezra - Paradise
TTITLE17=Frantzis - Talk About You
TTITLE18=Maroon 5 - Wait
EXTD=
EXTT0=
EXTT1=
EXTT2=
EXTT3=
EXTT4=
EXTT5=
EXTT6=
EXTT7=
EXTT8=
EXTT9=
EXTT10=
EXTT11=
EXTT12=
EXTT13=
EXTT14=
EXTT15=
EXTT16=
EXTT17=
EXTT18=
PLAYORDER=
